<svg width="169" height="45" viewBox="0 0 169 45" fill="none" xmlns="http://www.w3.org/2000/svg">
<path d="M48.5 35.05C47.5 35.05 46.6833 34.5667 46.05 33.6C45.45 32.6667 45.2167 31.55 45.35 30.25C45.5167 28.65 45.9 26.7667 46.5 24.6C47.1333 22.4 47.9 20.1 48.8 17.7C49.7333 15.2667 50.7167 12.9167 51.75 10.65C51.3167 11.25 50.7833 11.9833 50.15 12.85C49.55 13.6833 48.8667 14.65 48.1 15.75L47.2 17.05C46.4333 18.15 45.7333 19.1333 45.1 20C44.4667 20.8667 43.9 21.6333 43.4 22.3C43.3333 22.3667 43.1833 22.55 42.95 22.85C42.75 23.1167 42.4667 23.4833 42.1 23.95C41.7333 24.4167 41.3333 24.9 40.9 25.4C40.5 25.8667 40.0833 26.3333 39.65 26.8C37.65 29.0333 36.3 30.15 35.6 30.15C34.6 30.1833 33.85 29.7333 33.35 28.8C32.85 27.8667 32.6 26.5833 32.6 24.95C32.6 24.2833 32.65 23.55 32.75 22.75C33.0167 20.2167 33.7167 16.9333 34.85 12.9L36 8.8C36.1667 8.23333 36.2833 7.71666 36.35 7.25C36.4167 6.78333 36.4667 6.35 36.5 5.95C36.5 5.51666 36.6333 5.21666 36.9 5.05C37.2 4.85 37.5667 4.75 38 4.75C38.4667 4.75 38.8833 4.85 39.25 5.05C39.65 5.25 39.8333 5.46666 39.8 5.7C39.7 6.33333 39.5667 6.98333 39.4 7.65C39.2333 8.31667 39.0333 9.01667 38.8 9.75C38.7333 10.0167 38.6 10.3667 38.4 10.8C38.2333 11.2333 38.0167 11.7333 37.75 12.3L37.15 13.65C36.4167 15.2833 35.8333 16.8167 35.4 18.25C34.9667 19.6833 34.6667 21.15 34.5 22.65C34.4667 22.7833 34.45 22.9667 34.45 23.2C34.45 23.4 34.45 23.6333 34.45 23.9C34.45 24.9 34.6167 25.6167 34.95 26.05C35.3167 26.45 35.8833 26.6667 36.65 26.7C36.9833 26.7 37.4167 26.5167 37.95 26.15C38.5167 25.7833 39.1 25.3333 39.7 24.8C40.3 24.2667 40.8667 23.7167 41.4 23.15C41.9667 22.55 42.4167 22.0333 42.75 21.6C44.75 19.0667 46.5833 16.6167 48.25 14.25C49.95 11.85 51.3833 9.61667 52.55 7.55C53.75 5.48333 54.5833 3.68333 55.05 2.15C55.2167 1.65 55.6167 1.4 56.25 1.4C56.75 1.4 57.2 1.56666 57.6 1.9C58 2.23333 58.1 2.6 57.9 3L57.05 4.65C56.15 6.41667 55.2833 8.1 54.45 9.7C53.65 11.2667 52.9333 12.7833 52.3 14.25L52.25 14.2C50.8833 17.3333 49.8 20.2167 49 22.85C48.2333 25.45 47.7333 27.8167 47.5 29.95C47.4333 30.9167 47.55 31.7667 47.85 32.5C48.1833 33.2333 48.6667 33.6 49.3 33.6C50.1333 33.6 51.0167 33 51.95 31.8C52.2833 31.3667 52.5833 31.2 52.85 31.3C52.95 31.4 53 31.4833 53 31.55C53 31.7167 52.9333 31.8667 52.8 32C52.1 33.0333 51.3667 33.8 50.6 34.3C49.8667 34.8 49.1667 35.05 48.5 35.05ZM7.35 37.85C5.15 37.85 3.4 37.1333 2.1 35.7C0.8 34.3 0.15 32.3333 0.15 29.8C0.15 26.3 1.41667 22.2667 3.95 17.7C5.68333 14.5667 7.6 12.25 9.7 10.75C11.8333 9.21667 13.8667 8.45 15.8 8.45C17.5 8.45 18.9 8.96667 20 10C21.1333 11.0333 21.7 12.35 21.7 13.95C21.7 15.15 21.35 16.4 20.65 17.7C19.9833 19 18.95 20.3 17.55 21.6C17.3833 21.7667 17.2167 21.85 17.05 21.85C16.8833 21.85 16.8 21.75 16.8 21.55C16.8 21.35 16.9333 21.1167 17.2 20.85C18.2 19.8167 18.95 18.7833 19.45 17.75C19.95 16.6833 20.2 15.6833 20.2 14.75C20.2 13.4167 19.7667 12.3333 18.9 11.5C18.0333 10.6333 16.9333 10.2 15.6 10.2C14 10.2 12.3167 10.8667 10.55 12.2C8.81667 13.5 7.18333 15.5333 5.65 18.3C3.18333 22.8667 1.95 26.75 1.95 29.95C1.95 31.9833 2.43333 33.5667 3.4 34.7C4.4 35.8333 5.76667 36.4 7.5 36.4C9.06667 36.4 10.8167 35.9333 12.75 35C14.6833 34.0667 16.7333 32.65 18.9 30.75C21.9 28.0833 24.65 24.9333 27.15 21.3C28.4167 19.4667 29.3833 18.0667 30.05 17.1C30.7167 16.1333 31.0833 15.6 31.15 15.5C31.6833 14.7667 32.25 13.9833 32.85 13.15C33.45 12.2833 34.0833 11.35 34.75 10.35C34.85 10.1833 34.95 10.2 35.05 10.4C35.2167 10.6667 35.2333 10.8833 35.1 11.05C34.3333 12.1833 33.4667 13.55 32.5 15.15C31.5667 16.7167 30.5 18.4833 29.3 20.45L28.4 21.9H28.45C25.7833 26.0333 22.8 29.4833 19.5 32.25C17.3 34.1167 15.15 35.5167 13.05 36.45C10.9833 37.3833 9.08333 37.85 7.35 37.85ZM53.9598 42.25C53.2264 42.25 52.6264 41.9167 52.1598 41.25C51.6931 40.5833 51.4598 39.8 51.4598 38.9C51.4598 38.4 51.5431 37.95 51.7098 37.55C51.9764 36.9833 52.1931 36.7 52.3598 36.7C52.4931 36.7 52.5598 36.8 52.5598 37C52.5598 37.1667 52.5098 37.3833 52.4098 37.65C52.3764 37.75 52.3598 37.8333 52.3598 37.9C52.3264 38 52.3098 38.0833 52.3098 38.15C52.3098 38.75 52.4764 39.3667 52.8098 40C53.1764 40.6333 53.6264 40.95 54.1598 40.95L54.5598 40.85C55.3598 40.65 56.1098 40.2 56.8098 39.5C57.5431 38.8333 58.2598 38 58.9598 37C59.8931 35.6333 60.7264 34.15 61.4598 32.55C62.1931 30.9833 62.8264 29.4167 63.3598 27.85C63.8931 26.2833 64.2931 24.8667 64.5598 23.6C64.5598 23.4333 64.4931 23.35 64.3598 23.35C64.1264 23.35 63.7598 23.6167 63.2598 24.15C62.8598 24.5833 62.3431 25.1833 61.7098 25.95C61.0764 26.7167 60.2931 27.6333 59.3598 28.7L58.5598 29.65C58.0264 30.2833 57.4764 30.75 56.9098 31.05C56.3764 31.3167 55.8764 31.45 55.4098 31.45C55.0098 31.45 54.6764 31.3667 54.4098 31.2C54.0764 30.9667 53.9098 30.55 53.9098 29.95C53.9098 28.9833 54.3598 27.3833 55.2598 25.15L55.9098 23.55C56.2431 22.7833 56.5264 22.0833 56.7598 21.45C57.0264 20.8167 57.2764 20.2333 57.5098 19.7C57.7431 19.2667 58.0098 19.05 58.3098 19.05C58.6764 19.05 58.7431 19.2667 58.5098 19.7C57.3098 22.4333 56.6098 24.5833 56.4098 26.15C56.3764 26.2167 56.3598 26.3167 56.3598 26.45C56.3598 26.55 56.3598 26.6667 56.3598 26.8C56.3598 27.5333 56.6598 27.9 57.2598 27.9C57.6598 27.9 58.2264 27.6667 58.9598 27.2C59.6931 26.6667 60.6098 25.8333 61.7098 24.7C62.8098 23.5333 64.1264 22.0667 65.6598 20.3C65.9264 20.0333 66.1764 19.7667 66.4098 19.5C66.6431 19.2333 66.8598 18.9833 67.0598 18.75C67.1931 18.6167 67.3098 18.55 67.4098 18.55C67.5098 18.55 67.5598 18.7 67.5598 19C67.5598 19.3 67.5098 19.6833 67.4098 20.15C67.3098 20.5833 67.2598 20.85 67.2598 20.95C66.8598 23.3833 66.1264 26 65.0598 28.8C63.9598 31.5667 62.5598 34.1333 60.8598 36.5C59.1931 38.8667 57.3264 40.65 55.2598 41.85C54.8264 42.1167 54.3931 42.25 53.9598 42.25ZM66.5934 44.2C65.9934 44.2 65.5434 44 65.2434 43.6C64.9434 43.2 64.7934 42.6667 64.7934 42C64.7934 40.7333 65.2267 39.45 66.0934 38.15C66.8267 37.0833 67.8267 35.8833 69.0934 34.55C70.3934 33.2167 71.7767 31.9 73.2434 30.6C74.71 29.3 76.0767 28.1833 77.3434 27.25C78.81 26.15 80.0267 25.2667 80.9934 24.6C81.96 23.9 82.8767 23.3 83.7434 22.8C84.61 22.3 85.61 21.7833 86.7434 21.25C89.81 15.95 91.66 10.5833 92.2934 5.15C92.3267 5.05 92.3434 4.81667 92.3434 4.45C92.3434 3.08333 91.7767 2.4 90.6434 2.4C89.81 2.4 88.6767 2.76667 87.2434 3.5C86.3767 3.93333 85.46 4.48333 84.4934 5.15C83.5267 5.81667 82.66 6.46667 81.8934 7.1C81.1267 7.7 80.5934 8.18333 80.2934 8.55C79.06 9.95 77.9434 11.4167 76.9434 12.95C75.9767 14.4833 75.26 15.8833 74.7934 17.15C74.46 17.95 74.2934 18.7333 74.2934 19.5C74.2934 20.7667 74.91 21.3 76.1434 21.1C77.71 20.8333 79.21 20.35 80.6434 19.65C82.0767 18.95 83.26 18.2167 84.1934 17.45C84.36 17.35 84.56 17.25 84.7934 17.15C85.0267 17.05 85.21 17 85.3434 17C85.41 17 85.4434 17.0167 85.4434 17.05C85.4434 17.15 85.36 17.2833 85.1934 17.45C83.56 18.7167 82.0267 19.75 80.5934 20.55C79.1934 21.3167 77.7267 21.8167 76.1934 22.05C75.8934 22.0833 75.6434 22.1167 75.4434 22.15C75.2434 22.15 75.0767 22.15 74.9434 22.15C73.9434 22.15 73.1934 21.9167 72.6934 21.45C72.1934 20.9833 71.9434 20.3333 71.9434 19.5C71.9434 18.1333 72.5267 16.4167 73.6934 14.35C74.86 12.25 76.3767 10.1667 78.2434 8.1C79.6434 6.53333 81.0934 5.21666 82.5934 4.15C84.0934 3.05 85.5267 2.18333 86.8934 1.55C88.26 0.916666 89.41 0.533332 90.3434 0.399999C90.4434 0.366666 90.6434 0.349999 90.9434 0.349999C91.9434 0.349999 92.7434 0.683332 93.3434 1.35C93.9767 2.01666 94.2934 2.95 94.2934 4.15C94.2934 4.28333 94.2767 4.43333 94.2434 4.6C94.2434 4.76666 94.2267 4.96667 94.1934 5.2C93.4267 10.3333 91.71 15.4333 89.0434 20.5L89.8434 20.15C90.21 20.0167 90.51 19.95 90.7434 19.95C91.21 19.95 91.4434 20.05 91.4434 20.25C91.4434 20.3833 91.31 20.5333 91.0434 20.7C90.51 20.9667 90.01 21.2167 89.5434 21.45C89.0767 21.65 88.6267 21.8333 88.1934 22C86.6267 24.4333 84.8767 26.9333 82.9434 29.5C81.0434 32.0333 79.06 34.4167 76.9934 36.65C74.9267 38.9167 72.8434 40.8167 70.7434 42.35C69.0767 43.5833 67.6934 44.2 66.5934 44.2ZM67.4434 41.45C68.31 41.45 69.31 40.9833 70.4434 40.05C71.4767 39.2167 72.6267 38.1833 73.8934 36.95C75.1934 35.75 76.4767 34.4833 77.7434 33.15C79.01 31.85 80.16 30.6167 81.1934 29.45C82.2267 28.25 82.9934 27.2667 83.4934 26.5C83.8934 25.8667 84.26 25.2833 84.5934 24.75C84.9267 24.1833 85.2267 23.6667 85.4934 23.2C84.76 23.5667 84.06 23.95 83.3934 24.35C82.7267 24.7167 82.0934 25.1 81.4934 25.5C81.06 25.7667 80.51 26.15 79.8434 26.65C79.1767 27.15 78.3767 27.75 77.4434 28.45C76.3434 29.25 75.1434 30.2667 73.8434 31.5C72.5434 32.7 71.31 33.9333 70.1434 35.2C69.01 36.4667 68.0767 37.6333 67.3434 38.7C66.7767 39.5333 66.4934 40.1833 66.4934 40.65C66.4934 41.05 66.66 41.3 66.9934 41.4C67.0267 41.4333 67.1767 41.45 67.4434 41.45ZM89.1477 32.85C87.8477 32.85 87.1977 32.2667 87.1977 31.1C87.1977 31.0333 87.1977 30.9167 87.1977 30.75C87.231 30.5833 87.2643 30.3833 87.2977 30.15C87.631 28.7833 88.2977 27.4667 89.2977 26.2C90.331 24.9 91.5143 23.7667 92.8477 22.8C93.3477 22.4 94.1477 22.2 95.2477 22.2C95.881 22.2 96.431 22.3 96.8977 22.5C97.3977 22.6667 97.7477 22.9333 97.9477 23.3C98.1477 23.6333 98.2477 24.0167 98.2477 24.45C98.2477 24.5167 98.231 24.6167 98.1977 24.75C98.1977 24.8833 98.181 25.0333 98.1477 25.2C98.2143 25.1667 98.3143 25.15 98.4477 25.15C98.6143 25.15 98.8143 25.1333 99.0477 25.1C99.281 25.0667 99.4977 25.0333 99.6977 25C99.931 24.9667 100.164 24.95 100.398 24.95H100.598C100.964 24.95 100.998 25.1 100.698 25.4C100.431 25.6667 100.064 25.8333 99.5977 25.9L97.8977 26.1C97.5643 27.0333 96.981 27.9667 96.1477 28.9C95.3477 29.8333 94.4477 30.65 93.4477 31.35C92.481 32.0167 91.5643 32.45 90.6977 32.65C90.1977 32.7833 89.681 32.85 89.1477 32.85ZM95.5477 25.4C95.7477 25.4 95.981 25.4 96.2477 25.4C96.5477 25.3667 96.881 25.3333 97.2477 25.3C97.281 25.2333 97.2977 25.0833 97.2977 24.85C97.2977 24.25 97.0477 23.8333 96.5477 23.6C96.281 23.4333 95.9477 23.35 95.5477 23.35C95.0477 23.35 94.531 23.5167 93.9977 23.85C93.4977 24.15 92.9643 24.55 92.3977 25.05C93.0977 25.2833 94.1477 25.4 95.5477 25.4ZM90.6477 31.1C90.981 31.1 91.4477 30.95 92.0477 30.65C92.681 30.3167 93.331 29.8833 93.9977 29.35C94.6643 28.8167 95.2643 28.25 95.7977 27.65C95.9643 27.4833 96.131 27.2833 96.2977 27.05C96.4643 26.7833 96.6477 26.5167 96.8477 26.25L95.6477 26.4C93.781 26.6667 92.1143 26.8167 90.6477 26.85C89.9143 28.05 89.4643 29.05 89.2977 29.85C89.2643 30.2833 89.381 30.6 89.6477 30.8C89.9143 31 90.2477 31.1 90.6477 31.1ZM108.614 33.45C107.747 33.45 107.314 32.8167 107.314 31.55C107.314 30.25 107.764 28.3333 108.664 25.8C107.597 27.1667 106.531 28.3833 105.464 29.45C104.431 30.4833 103.397 31.3333 102.364 32C101.631 32.5333 100.964 32.8 100.364 32.8C99.5641 32.8 99.1641 32.25 99.1641 31.15C99.1641 30.55 99.2641 30 99.4641 29.5C99.7307 28.7667 100.114 27.9167 100.614 26.95C101.147 25.9833 101.764 25.0167 102.464 24.05C103.164 23.0833 103.881 22.2667 104.614 21.6C104.881 21.4333 105.047 21.35 105.114 21.35C105.347 21.35 105.464 21.4833 105.464 21.75C105.464 21.85 105.414 21.9833 105.314 22.15C105.014 22.4833 104.664 22.9667 104.264 23.6C103.864 24.2333 103.481 24.9167 103.114 25.65C102.747 26.3833 102.431 27.0667 102.164 27.7C101.931 28.3 101.814 28.75 101.814 29.05C101.814 29.65 102.081 29.95 102.614 29.95C102.847 29.95 103.097 29.8667 103.364 29.7C104.597 28.9333 105.731 28.0167 106.764 26.95C107.797 25.85 108.764 24.3667 109.664 22.5C109.964 22.3 110.297 22.2 110.664 22.2C111.031 22.2 111.331 22.3167 111.564 22.55C111.831 22.7833 111.964 23.1 111.964 23.5C111.964 23.8 111.881 24.15 111.714 24.55C111.681 24.6833 111.614 24.8167 111.514 24.95C111.447 25.0833 111.364 25.2333 111.264 25.4C111.164 25.5667 111.081 25.7333 111.014 25.9C110.947 26.0333 110.881 26.15 110.814 26.25C110.181 27.3833 109.681 28.3333 109.314 29.1C108.981 29.8667 108.814 30.5333 108.814 31.1C108.814 31.7667 109.114 32.1 109.714 32.1C110.247 32.1 110.781 31.9 111.314 31.5C111.647 31.2667 111.931 31.15 112.164 31.15C112.531 31.15 112.447 31.3833 111.914 31.85C111.414 32.2833 110.797 32.6833 110.064 33.05C109.364 33.3167 108.881 33.45 108.614 33.45ZM113.377 33.05C112.943 33.05 112.727 32.6667 112.727 31.9C112.727 31.2667 112.877 30.65 113.177 30.05C113.943 28.5833 114.643 27.1333 115.277 25.7C115.71 24.8333 116.11 24 116.477 23.2C116.877 22.4 117.243 21.6667 117.577 21C117.777 20.8 117.977 20.7 118.177 20.7C118.61 20.7 118.743 20.9 118.577 21.3C118.51 21.5333 118.41 21.8167 118.277 22.15C118.177 22.45 118.043 22.8167 117.877 23.25C117.343 24.65 117.027 25.6333 116.927 26.2C117.86 25.3667 118.81 24.6 119.777 23.9C120.777 23.1667 121.71 22.5667 122.577 22.1C123.443 21.6333 124.177 21.4 124.777 21.4C125.31 21.4 125.577 21.6167 125.577 22.05C125.577 22.4167 125.41 22.8167 125.077 23.25C124.743 23.65 124.41 23.85 124.077 23.85C123.91 23.85 123.777 23.8 123.677 23.7C123.577 23.6667 123.377 23.65 123.077 23.65C122.01 23.65 120.893 24.1667 119.727 25.2C118.493 26.2333 117.377 27.4833 116.377 28.95C115.377 30.3833 114.643 31.6333 114.177 32.7C113.943 32.9333 113.677 33.05 113.377 33.05ZM123.49 32.8C122.89 32.8 122.59 32.5667 122.59 32.1C122.59 31.8 122.69 31.4167 122.89 30.95C123.123 30.4833 123.357 30.0333 123.59 29.6C124.223 28.4667 124.807 27.3667 125.34 26.3C125.873 25.2333 126.39 24.1 126.89 22.9C127.123 22.3667 127.473 22.1 127.94 22.1C128.44 22.1 128.59 22.4 128.39 23C128.19 23.5 127.99 23.95 127.79 24.35C126.857 26.25 126.39 27.5333 126.39 28.2C126.39 28.5 126.49 28.6833 126.69 28.75C127.157 28.3833 127.507 28.1167 127.74 27.95C127.973 27.75 128.107 27.6333 128.14 27.6C128.607 27.2333 129.123 26.8167 129.69 26.35C130.29 25.85 130.94 25.2833 131.64 24.65C132.74 23.65 133.657 23.15 134.39 23.15C135.29 23.15 135.673 23.9667 135.54 25.6C135.507 26.2333 135.507 26.85 135.54 27.45C135.573 27.5833 135.59 27.7833 135.59 28.05C135.59 28.2833 135.59 28.5667 135.59 28.9C135.59 29.2333 135.79 29.4 136.19 29.4C136.657 29.4 137.09 29.2667 137.49 29L138.59 28.25L139.69 27.55C139.757 27.5167 139.873 27.5 140.04 27.5C140.24 27.5 140.24 27.65 140.04 27.95C137.94 30.55 136.207 31.85 134.84 31.85C134.573 31.85 134.307 31.8 134.04 31.7C133.807 31.6 133.64 31.3167 133.54 30.85C133.44 30.35 133.373 29.8167 133.34 29.25C133.34 28.6833 133.34 28.25 133.34 27.95L133.39 26.3C133.39 25.6 133.207 25.25 132.84 25.25C131.973 25.25 129.84 27.0333 126.44 30.6C126.173 30.9333 125.757 31.3833 125.19 31.95C124.623 32.5167 124.057 32.8 123.49 32.8ZM148.034 33.35C147.968 33.35 147.901 33.3333 147.834 33.3C147.768 33.3 147.701 33.2833 147.634 33.25C147.168 33.0167 146.868 32.6833 146.734 32.25C146.601 31.8167 146.568 31.2667 146.634 30.6C146.701 30.3333 146.768 29.8667 146.834 29.2C146.934 28.5333 147.051 28 147.184 27.6L144.634 30.05L143.234 31.4C142.268 32.3667 141.468 32.85 140.834 32.85C140.568 32.85 140.351 32.75 140.184 32.55C139.884 32.1833 139.734 31.7333 139.734 31.2C139.734 30.5 139.918 29.75 140.284 28.95C140.651 28.15 141.084 27.3833 141.584 26.65C142.084 25.8833 142.534 25.25 142.934 24.75C143.934 23.5167 144.901 22.55 145.834 21.85C146.801 21.15 147.801 20.8 148.834 20.8C149.401 20.8 149.951 20.9 150.484 21.1C151.051 21.3 151.568 21.6333 152.034 22.1L152.084 22.15C152.084 22.25 152.001 22.35 151.834 22.45C151.768 22.5167 151.701 22.5667 151.634 22.6C151.601 22.6333 151.568 22.6667 151.534 22.7C151.134 23.1 150.684 23.7667 150.184 24.7C149.684 25.6333 149.251 26.6167 148.884 27.65C148.518 28.65 148.334 29.5167 148.334 30.25C148.334 30.9167 148.501 31.3667 148.834 31.6C149.001 31.7 149.184 31.75 149.384 31.75C149.818 31.75 150.418 31.4833 151.184 30.95C151.218 30.9167 151.284 30.8667 151.384 30.8C151.518 30.7 151.701 30.5667 151.934 30.4C152.201 30.2 152.418 30.1 152.584 30.1C152.751 30.1 152.834 30.1667 152.834 30.3C152.834 30.5 152.701 30.7333 152.434 31C152.234 31.1667 152.001 31.35 151.734 31.55C151.501 31.75 151.218 31.95 150.884 32.15C150.384 32.5167 149.868 32.8 149.334 33C148.801 33.2333 148.368 33.35 148.034 33.35ZM142.384 30.15C143.084 30.15 144.384 29.1167 146.284 27.05C146.784 26.4833 147.234 25.95 147.634 25.45C148.034 24.9167 148.401 24.4 148.734 23.9C149.334 22.9333 149.534 22.2667 149.334 21.9C149.234 21.7 149.034 21.6 148.734 21.6C148.368 21.6 147.868 21.8 147.234 22.2C146.601 22.5667 145.951 23.05 145.284 23.65C144.651 24.25 144.068 24.85 143.534 25.45C143.168 25.9167 142.801 26.5667 142.434 27.4C142.068 28.2333 141.884 28.9167 141.884 29.45C141.884 29.9167 142.051 30.15 142.384 30.15ZM154.884 35.3C154.517 35.3 154.201 35.1833 153.934 34.95C153.701 34.7167 153.601 34.4333 153.634 34.1C153.701 32.7333 153.951 31.4167 154.384 30.15C154.851 28.8833 155.517 27.3667 156.384 25.6C156.484 25.3667 156.567 25.1667 156.634 25C156.734 24.8 156.817 24.6333 156.884 24.5C157.617 22.9333 158.367 21.4333 159.134 20C159.901 18.5667 160.667 17.1667 161.434 15.8L162.134 14.55C162.934 13.1167 163.634 11.9667 164.234 11.1C164.834 10.2 165.434 9.55 166.034 9.15C166.801 8.68333 167.267 8.45 167.434 8.45C167.701 8.45 167.967 8.68333 168.234 9.15C168.401 9.48333 168.067 10.3 167.234 11.6C166.801 12.2667 166.251 13.1 165.584 14.1C164.951 15.1 164.184 16.2333 163.284 17.5C163.117 17.7333 162.834 18.15 162.434 18.75C162.067 19.3167 161.567 20.0667 160.934 21C160.301 21.9333 159.751 22.7833 159.284 23.55C158.817 24.2833 158.434 24.9333 158.134 25.5C157.534 26.6 156.967 27.7833 156.434 29.05C155.901 30.2833 155.634 31.25 155.634 31.95C155.634 32.5833 155.884 32.9 156.384 32.9C157.184 32.9 158.467 32.2167 160.234 30.85C160.434 30.8833 160.534 30.9833 160.534 31.15C160.534 31.2833 160.367 31.5167 160.034 31.85C159.734 32.15 159.351 32.4667 158.884 32.8C158.451 33.1667 157.934 33.5833 157.334 34.05L156.534 34.65C156.001 35.0833 155.451 35.3 154.884 35.3Z" fill="white"/>
</svg>
